<svg width="3659" height="764" viewBox="0 0 3659 764" fill="none" xmlns="http://www.w3.org/2000/svg">
<path d="M0 73.9629C0 33.1143 33.1143 0.000146951 73.9629 0.000146951L3584.89 0C3651.8 0 3684.32 81.7773 3635.68 127.728L3423.7 327.991C3392.8 357.178 3392.8 406.335 3423.7 435.521L3635.68 635.785C3684.32 681.735 3651.8 763.513 3584.89 763.513L73.9629 763.513C33.1143 763.513 0 730.398 0 689.55V73.9629Z" fill="#FF4D00"/>
<path d="M680.232 212.847V550.666H554.491V389.96L462.12 550.666H379.905L287.534 389.96V550.666H161.794V212.847H316.551L421.013 405.886L525.474 212.847H680.232Z" fill="white"/>
<path d="M709.396 338.322H1096.29V434.842H709.396V338.322Z" fill="white"/>
<path d="M1449.28 212.847H1575.02V550.666H1449.28V434.842H1250.99V550.666H1125.25V212.847H1250.99V328.67H1449.28V212.847Z" fill="white"/>
<path d="M1797.46 555.492C1648.51 555.492 1584.67 499.028 1584.67 381.274C1584.67 264.002 1648.51 208.021 1797.46 208.021C1945.93 208.021 2010.25 264.485 2010.25 381.274C2010.25 498.545 1945.93 555.492 1797.46 555.492ZM1797.46 449.32C1871.45 449.32 1884.51 416.986 1884.51 381.274C1884.51 346.044 1871.94 314.192 1797.46 314.192C1722.98 314.192 1710.41 345.561 1710.41 381.274C1710.41 417.469 1723.47 449.32 1797.46 449.32Z" fill="white"/>
<path d="M2450.53 381.274C2450.53 498.545 2386.21 555.492 2237.74 555.492C2088.79 555.492 2024.95 499.028 2024.95 381.274V212.847H2150.69V381.274C2150.69 417.469 2163.75 449.32 2237.74 449.32C2311.74 449.32 2324.79 416.986 2324.79 381.274V212.847H2450.53V381.274Z" fill="white"/>
<path d="M2465 431.464H2590.75C2590.75 447.872 2606.22 458.972 2686.02 458.972C2760.5 458.972 2771.62 454.146 2771.62 441.599C2771.62 427.121 2760.5 425.19 2681.18 422.777C2528.36 417.951 2469.84 392.856 2469.84 314.192C2469.84 239.872 2542.87 208.021 2676.35 208.021C2808.37 208.021 2882.85 239.872 2882.85 326.257H2757.11C2757.11 308.401 2728.09 304.54 2666.67 304.54C2607.67 304.54 2595.58 307.436 2595.58 320.466C2595.58 333.496 2607.67 333.014 2681.18 335.909C2814.66 341.218 2897.36 350.387 2897.36 438.703C2897.36 531.845 2819.98 555.492 2681.18 555.492C2542.38 555.492 2465 531.845 2465 431.464Z" fill="white"/>
<path d="M3269.78 309.366H3037.64V340.735H3269.78V422.777H3037.64V454.146H3269.78V550.666H2911.9V212.847H3269.78V309.366Z" fill="white"/>
</svg>
